<svg preserveAspectRatio="none" overflow="visible" style="display: block;" width="32" height="32" viewBox="0 0 32 32" fill="none" xmlns="http://www.w3.org/2000/svg">
<g id="Trip Icon / Wallet">
<path id="Vector" d="M6 11H25C27 11 28 12 28 14V24C28 26 27 27 25 27H7C5 27 4 26 4 24V13C4 11.8 4.8 11 6 11Z" stroke="#003B2B" stroke-width="2.4" stroke-linejoin="round"/>
<path id="Vector_2" d="M8 11L22 7C23.6 6.6 24.7 7.4 25.1 9L25.6 11" stroke="#003B2B" stroke-width="2.4" stroke-linecap="round"/>
<path id="Vector_3" d="M22 18H28V23H22C21.337 23 20.7011 22.7366 20.2322 22.2678C19.7634 21.7989 19.5 21.163 19.5 20.5C19.5 19.837 19.7634 19.2011 20.2322 18.7322C20.7011 18.2634 21.337 18 22 18Z" stroke="#003B2B" stroke-width="2.4"/>
<path id="Vector_4" d="M22.8 21.3C23.2418 21.3 23.6 20.9418 23.6 20.5C23.6 20.0582 23.2418 19.7 22.8 19.7C22.3582 19.7 22 20.0582 22 20.5C22 20.9418 22.3582 21.3 22.8 21.3Z" fill="#003B2B"/>
</g>
</svg>
