<svg preserveAspectRatio="none" overflow="visible" style="display: block;" width="28" height="28" viewBox="0 0 28 28" fill="none" xmlns="http://www.w3.org/2000/svg">
<g id="Footer / CTA Icon">
<path id="Vector" d="M14 25C14 25 22 17.8 22 11C22 8.87827 21.1571 6.84344 19.6569 5.34315C18.1566 3.84285 16.1217 3 14 3C11.8783 3 9.84344 3.84285 8.34315 5.34315C6.84285 6.84344 6 8.87827 6 11C6 17.8 14 25 14 25Z" stroke="white" stroke-width="2"/>
<path id="Vector_2" d="M14 14C15.6569 14 17 12.6569 17 11C17 9.34315 15.6569 8 14 8C12.3431 8 11 9.34315 11 11C11 12.6569 12.3431 14 14 14Z" stroke="white" stroke-width="2"/>
</g>
</svg>
