<svg preserveAspectRatio="none" overflow="visible" style="display: block;" width="30.975" height="22.575" viewBox="0 0 30.975 22.575" fill="none" xmlns="http://www.w3.org/2000/svg">
<path id="description" d="M25.9875 4.2H1.575V0.7875C1.575 0.578642 1.49203 0.378338 1.34435 0.230653C1.19666 0.0829684 0.996358 0 0.7875 0C0.578642 0 0.378338 0.0829684 0.230653 0.230653C0.0829684 0.378338 0 0.578642 0 0.7875V21.7875C0 21.9964 0.0829684 22.1967 0.230653 22.3443C0.378338 22.492 0.578642 22.575 0.7875 22.575C0.996358 22.575 1.19666 22.492 1.34435 22.3443C1.49203 22.1967 1.575 21.9964 1.575 21.7875V17.325H29.4V21.7875C29.4 21.9964 29.483 22.1967 29.6307 22.3443C29.7783 22.492 29.9786 22.575 30.1875 22.575C30.3964 22.575 30.5967 22.492 30.7443 22.3443C30.892 22.1967 30.975 21.9964 30.975 21.7875V9.1875C30.975 7.86473 30.4495 6.59614 29.5142 5.66081C28.5789 4.72547 27.3103 4.2 25.9875 4.2ZM1.575 5.775H11.55V15.75H1.575V5.775ZM13.125 15.75V5.775H25.9875C26.8926 5.775 27.7605 6.13453 28.4005 6.7745C29.0405 7.41447 29.4 8.28245 29.4 9.1875V15.75H13.125Z" fill="#C89A38"/>
</svg>
